# xmcd CD database file
#
# Track frame offsets:
#	150
#	14887
#	29465
#	44115
#	61817
#	81322
#	90912
#	109182
#	120642
#	136002
#	155552
#	170590
#
# Disc length: 2515 seconds
#
# Revision: 1
# Processed by: cddbd v1.5.1PL0 Copyright (c) Steve Scherf et al.
# Submitted via: CDex 1.50
#
DISCID=9f09d10c
DTITLE=Illés - Az Illés másik oldalán
DYEAR=1996
DGENRE=
TTITLE0=Légy jó kicsit hozzám
TTITLE1=Igen
TTITLE2=Láss, ne csak nézz
TTITLE3=A bolond lány
TTITLE4=Petõfi '73 - fõcímzene
TTITLE5=Évek óta
TTITLE6=A lány és a csavargó
TTITLE7=A legjobb dobos a világon
TTITLE8=Good-bye London
TTITLE9=Elvonult a vihar
TTITLE10=Európa csendes
TTITLE11=Eltávozott nap
EXTD=Válogatás ritkaságokból és meg nem jelent felvételekbõl\n(P) 1996, Hungaroton HCD 37846 YEAR: 1996
EXTT0=1973. Szörényi Levente - Bródy János
EXTT1=1973. Szörényi Levente - Bródy János
EXTT2=1973. Szörényi Levente - Bródy János
EXTT3=1973. Szörényi Levente - Bródy János
EXTT4=1972. Szörényi Levente
EXTT5=1970. Illés Lajos - Bródy János
EXTT6=1970. Szörényi Szabolcs - Bródy János
EXTT7=1971. Pásztory Zoltán
EXTT8=1971. Szörényi Levente - Bródy János
EXTT9=1971. Szörényi Levente - Bródy János
EXTT10=1972. Szörényi Levente - Petõfi Sándor
EXTT11=1973. Szörényi Levente - Bródy János
PLAYORDER=
